<svg width="96" height="104" viewBox="0 0 96 104" fill="none" xmlns="http://www.w3.org/2000/svg">
<path d="M71.6656 8.89091C74.3765 8.89091 74.3902 4.66797 71.6656 4.66797C68.9548 4.66797 68.941 8.89091 71.6656 8.89091Z" fill="#E2A06F"/>
<path d="M67.909 4.14528C63.9597 3.47126 59.9966 3.09987 55.9785 3.05861C53.2676 3.03109 53.2539 7.25403 55.9785 7.28154C59.6113 7.32281 63.2029 7.61166 66.7806 8.2169C69.4502 8.65708 70.5924 4.59921 67.909 4.14528Z" fill="#E2A06F"/>
<path d="M27.6315 5.85083C22.7464 5.85083 17.8614 5.85083 12.9901 5.85083C10.2792 5.85083 10.2655 10.0738 12.9901 10.0738C17.8751 10.0738 22.7602 10.0738 27.6315 10.0738C30.3561 10.0738 30.3561 5.85083 27.6315 5.85083Z" fill="#E2A06F"/>
<path d="M28.347 2.2883C21.8107 2.48088 15.2743 2.56342 8.73801 2.54966C6.02716 2.53591 6.0134 6.75882 8.73801 6.77258C15.2743 6.78633 21.8107 6.7038 28.347 6.51122C31.0579 6.42869 31.0579 2.20577 28.347 2.2883Z" fill="#E2A06F"/>
<path d="M29.7505 9.74365C32.1449 9.4823 34.553 9.3585 36.9611 9.3585C39.672 9.37226 39.6858 5.14934 36.9611 5.13558C34.553 5.12183 32.1449 5.25938 29.7505 5.52073C28.6084 5.64453 27.6589 6.4011 27.6452 7.62533C27.6314 8.6845 28.6222 9.86745 29.7505 9.74365Z" fill="#E2A06F"/>
<path d="M39.9197 3.95261C32.2825 4.35152 25.2508 1.07773 17.476 1.06397C14.9853 1.06397 11.614 0.582536 9.37098 1.86179C8.54533 2.34323 7.38944 4.28274 6.86653 4.83296C5.44918 6.29103 3.63277 7.33645 1.91268 8.38187C2.62824 9.59235 3.33003 10.8166 4.04559 12.0271C6.46747 10.4039 8.33892 8.60197 10.1141 6.29105C8.83431 5.75459 7.5408 5.20436 6.26106 4.6679C5.94456 6.00218 5.61431 7.33646 5.29781 8.67074C4.96755 10.0463 5.9308 11.2843 7.33439 11.3393C9.81132 11.4493 12.2194 11.353 14.6826 11.0229C16.0312 10.8441 17.6136 9.27597 16.499 7.8454C15.8247 6.97881 15.2055 6.00218 14.4074 5.23188C13.8982 4.75044 13.0451 4.42031 12.357 4.69541C12.1782 4.76419 11.9855 4.83296 11.8066 4.90174C10.8709 5.25938 10.3342 5.93341 10.2517 6.93756C10.0865 9.3035 11.8341 10.0188 13.8432 10.4314C18.4393 11.3943 23.2968 11.5731 27.9754 11.6694C37.3602 11.8482 47.1579 11.8207 56.4188 10.1426C58.8957 9.70239 58.0838 6.16724 55.8546 6.00218C49.9788 5.562 44.0755 5.45197 38.4336 3.65001C33.4247 2.05437 28.5672 0.995203 23.283 1.09149C20.5722 1.14651 20.5584 5.35567 23.283 5.31441C29.1038 5.23187 34.9246 5.14934 40.7454 5.05305C43.4562 5.01178 43.47 0.788868 40.7454 0.830134C34.9246 0.912667 29.1038 0.995203 23.283 1.09149C23.283 2.49455 23.283 3.89759 23.283 5.31441C29.4754 5.19061 34.5393 7.28144 40.4289 8.67074C45.4102 9.85371 50.7769 9.83996 55.8546 10.2251C55.662 8.84957 55.4831 7.46025 55.2904 6.08471C48.3 7.35021 41.0481 7.35021 33.9476 7.46025C30.5349 7.51528 27.1085 7.50152 23.6959 7.30894C22.2785 7.22641 20.8612 7.11638 19.4438 6.97883C18.2191 6.86878 16.9944 6.7037 15.7835 6.51112C14.1459 5.76833 13.7056 5.9059 14.4487 6.93756C13.9258 7.61158 13.4166 8.29934 12.8937 8.97336C13.0726 8.90458 13.2653 8.83579 13.4441 8.76702C12.7561 8.5882 12.0818 8.40938 11.3938 8.23056C11.9029 8.79453 12.3846 9.37226 12.8249 9.99125C13.4304 8.93208 14.0359 7.87292 14.6413 6.81375C12.1782 7.14388 9.77004 7.24018 7.29311 7.13014C7.96739 8.02424 8.65542 8.90457 9.32969 9.79868C9.64619 8.4644 9.97645 7.13013 10.2929 5.79586C10.8847 3.33363 7.82978 2.34322 6.43995 4.1727C5.07764 5.96091 3.75661 7.15764 1.88516 8.39564C-0.357836 9.89498 1.67875 13.4714 4.01807 12.0408C6.34362 10.6103 8.2426 9.13842 10.2654 7.35021C13.0726 4.87423 16.3339 5.19061 19.9667 5.34192C23.7096 5.50699 27.1223 6.34608 30.7001 7.43276C33.9476 8.42315 36.4933 8.36811 39.906 8.18929C42.6306 8.02423 42.6443 3.81505 39.9197 3.95261Z" fill="#E2A06F"/>
<path d="M44.7635 1.02278C43.1398 0.94025 41.5573 1.06404 39.9473 1.29789C38.8189 1.46295 38.1997 2.89352 38.4749 3.89766C38.8052 5.10814 39.9335 5.53457 41.0757 5.36951C42.3004 5.19069 43.5388 5.19067 44.7773 5.24569C45.9194 5.30071 46.8827 4.24155 46.8827 3.14111C46.8689 1.94439 45.9057 1.0778 44.7635 1.02278Z" fill="#E2A06F"/>
<path d="M48.5751 2.13697C47.6257 2.48086 46.6624 2.57715 45.6716 2.43959C46.0294 3.74636 46.3872 5.05314 46.7312 6.37367C47.6257 5.93349 48.5614 5.64462 49.5384 5.49331C52.0428 4.95685 51.1759 1.58674 48.9742 1.35289C46.7037 1.1053 44.4469 0.953984 42.1627 0.857696C42.1627 2.26076 42.1627 3.66383 42.1627 5.08065C48.9192 5.25947 55.6619 5.43828 62.4184 5.63086C62.2258 4.25531 62.0469 2.86601 61.8542 1.49046C58.2352 2.38457 54.5335 2.12321 50.942 3.18238C48.988 3.76011 48.8779 6.73131 50.942 7.25402C55.0564 8.28568 59.2259 7.50161 63.3404 8.32694C63.3404 6.96515 63.3404 5.6171 63.3404 4.25531C60.4231 5.38326 56.9279 4.723 54.3134 6.27737C52.841 7.15772 52.9923 9.75751 54.8225 10.1289C63.2165 11.8621 72.8903 10.7892 81.4219 10.7204C82.1237 10.7204 82.9218 10.3352 83.2383 9.67498C84.2429 7.68043 85.4125 5.96101 86.9537 4.33786C88.4812 2.72846 86.9262 0.458788 84.9034 0.816431C77.7341 2.09569 69.8767 1.1053 62.6248 0.967742C62.6248 2.3708 62.6248 3.77387 62.6248 5.19069C65.7485 5.19069 68.8722 5.1907 71.9958 5.21821C72.8215 5.21821 80.2798 5.02562 80.2385 4.92933C80.2385 4.21405 80.2385 3.51251 80.2385 2.79723C79.0138 5.46579 68.0878 4.104 65.7072 4.13151C65.7072 5.53457 65.7072 6.93764 65.7072 8.35446C69.5052 8.31319 73.3031 8.27191 77.1011 8.23065C79.8119 8.20313 79.8257 3.98021 77.1011 4.00772C73.3031 4.04898 69.5052 4.09025 65.7072 4.13151C62.9964 4.15902 62.9826 8.38197 65.7072 8.35446C68.9135 8.32695 84.7933 10.4315 84.1328 3.59505C83.8576 0.761415 80.899 1.09155 78.8212 1.06404C73.427 1.00902 68.019 0.981511 62.6248 0.981511C59.9002 0.981511 59.914 5.14942 62.6248 5.20444C70.3033 5.35575 78.4221 6.26361 86.018 4.90182C85.33 3.7326 84.6557 2.54963 83.9677 1.38041C82.1788 3.27867 80.7614 5.23195 79.5918 7.57039C80.1972 7.2265 80.8027 6.86886 81.4082 6.52498C77.1836 6.56624 72.9453 6.56624 68.7208 6.52498C64.5651 6.48371 59.9965 6.92388 55.9234 6.08479C56.0885 7.36405 56.2536 8.65707 56.4325 9.93634C57.382 9.37236 59.0746 9.68873 60.1479 9.52367C61.6616 9.30358 63.0239 8.87716 64.455 8.32694C66.2026 7.65292 66.698 4.70924 64.455 4.25531C60.3405 3.41622 56.1298 4.20029 52.0566 3.18238C52.0566 4.54417 52.0566 5.89222 52.0566 7.25402C55.6206 6.19484 59.3635 6.4562 62.9688 5.5621C65.3219 4.98436 64.7577 1.4767 62.4046 1.42168C55.6481 1.24285 48.9054 1.06404 42.1489 0.871464C39.4243 0.802687 39.438 4.98435 42.1489 5.09439C44.4332 5.17693 46.6899 5.34199 48.9604 5.58959C48.7678 4.21404 48.5889 2.82474 48.3963 1.44919C47.0202 1.73806 45.8505 2.17823 44.5708 2.75596C42.5342 3.67758 43.7314 6.59375 45.6304 6.69004C47.0615 6.75881 48.2724 6.6075 49.6485 6.2361C52.3043 5.50706 51.2034 1.43544 48.5751 2.13697Z" fill="#E2A06F"/>
<path d="M80.1973 12.0272C64.3862 13.0038 48.644 11.6145 32.8192 11.6833C25.0031 11.7245 17.2008 11.9584 9.3985 12.3023C7.6509 12.3848 5.49047 12.0684 4.33457 13.6503C3.08235 15.356 3.96303 18.8911 4.1832 20.7206C4.4997 23.3892 8.72423 23.4167 8.40773 20.7206C8.21508 19.0837 7.73346 16.8966 8.20132 15.2735C7.70594 15.7687 7.22431 16.2501 6.72893 16.7453C9.31594 15.92 13.0451 16.3601 15.7147 16.2639C18.7145 16.1538 21.7143 16.0713 24.7279 16.0025C31.0303 15.8649 37.3465 15.8512 43.6489 15.9887C55.8821 16.2501 67.964 17.0066 80.211 16.2501C82.8944 16.085 82.9219 11.8621 80.1973 12.0272Z" fill="#FFFEF2"/>
<path d="M7.91236 20.0191C32.4064 20.3354 56.9004 20.0191 81.3807 19.0424C84.0916 18.9324 84.1053 14.7232 81.3807 14.8195C56.9004 15.7824 32.4064 16.1125 7.91236 15.7961C5.18774 15.7686 5.18774 19.9778 7.91236 20.0191Z" fill="#FFFEF2"/>
<path d="M84.4768 16.6076C87.3115 13.8015 88.3848 9.61984 89.8297 6.0159C90.8342 3.49865 86.7611 2.39822 85.7565 4.88796C84.6006 7.77662 83.7475 11.3943 81.477 13.6227C79.5505 15.5347 82.5365 18.5197 84.4768 16.6076Z" fill="#FFFEF2"/>
<path d="M7.78846 23.9119C22.7463 24.077 37.718 24.0632 52.6758 23.8981C55.3867 23.8706 55.4005 19.6477 52.6758 19.6752C37.718 19.854 22.7463 19.854 7.78846 19.6889C5.06384 19.6614 5.06384 23.8844 7.78846 23.9119Z" fill="#FFFEF2"/>
<path d="M5.17399 22.2474C5.29783 23.1553 5.33911 24.0494 5.31159 24.9572C6.50877 24.462 7.70596 23.9668 8.9169 23.4716C8.71049 23.224 8.55912 22.8802 8.5316 22.5638C7.22433 22.9214 5.91706 23.2791 4.59604 23.623C5.21527 24.8334 5.39416 26.0989 5.29783 27.4332C5.21527 28.5749 6.32989 29.5378 7.40322 29.5378C8.61416 29.5378 9.42604 28.5749 9.50861 27.4332C9.65997 25.3424 9.17835 23.3478 8.22886 21.4909C7.30689 19.6889 4.08689 20.4592 4.2933 22.55C4.44467 24.0769 4.94006 25.2736 5.91706 26.4428C7.15553 27.9147 9.46732 26.6492 9.52237 24.9572C9.54989 24.0494 9.49485 23.1553 9.38476 22.2474C9.23339 21.1195 8.51784 20.1428 7.27937 20.1428C6.26108 20.1428 5.02262 21.1195 5.17399 22.2474Z" fill="#FFFEF2"/>
<path d="M4.49966 23.2928C4.92625 25.8789 5.20146 28.4786 5.35283 31.1059C5.51796 33.802 9.74249 33.8158 9.57736 31.1059C9.39847 28.1072 9.05446 25.1361 8.57283 22.1786C8.13249 19.4963 4.05932 20.638 4.49966 23.2928Z" fill="#FFFEF2"/>
<path d="M4.77495 26.264C5.02264 28.7675 5.21529 31.2848 5.3529 33.802C5.50427 36.5531 9.2747 36.4706 9.57744 33.802C9.66 33.0042 9.82513 32.2064 10.004 31.4223C10.6232 28.7813 6.56384 27.6533 5.93085 30.2944C5.65564 31.4498 5.47675 32.6053 5.3529 33.7883C6.75649 33.7883 8.16008 33.7883 9.57744 33.7883C9.43983 31.271 9.24718 28.7675 8.99949 26.2503C8.73803 23.5817 4.5135 23.5542 4.77495 26.264Z" fill="#FFFEF2"/>
<path d="M81.023 18.9186C64.1661 19.5101 47.323 20.0878 30.4662 20.6793C27.7553 20.7756 27.7415 24.9986 30.4662 24.9023C47.323 24.3108 64.1661 23.7331 81.023 23.1416C83.7338 23.0453 83.7476 18.8223 81.023 18.9186Z" fill="#FFFEF2"/>
<path d="M83.7889 15.2046C83.0595 19.2075 81.9587 23.1691 81.0092 27.1169C80.3762 29.7579 84.4494 30.8859 85.0824 28.2448C86.0319 24.2832 87.119 20.3354 87.862 16.3326C88.3437 13.664 84.2842 12.5361 83.7889 15.2046Z" fill="#FFFEF2"/>
<path d="M84.587 13.5127C84.5182 15.4935 84.3943 17.4605 84.2292 19.4413C84.0228 21.821 87.8207 22.2887 88.3712 20.0053C89.2518 16.3326 90.1463 12.6599 91.027 8.97343C89.8573 9.2898 88.6739 9.59241 87.5042 9.90879C88.495 10.7616 89.6509 11.4769 89.816 12.88C89.9536 14.1042 89.7059 15.356 89.816 16.5802C90.0362 19.2625 94.2607 19.29 94.0406 16.5802C93.8892 14.6957 94.302 12.7562 93.7378 10.913C93.2012 9.16601 91.8251 8.06556 90.5041 6.92386C89.3619 5.94722 87.3804 6.20858 86.9813 7.85924C86.1006 11.5319 85.2062 15.2046 84.3255 18.8911C85.7016 19.0837 87.0914 19.2625 88.4675 19.4551C88.6464 17.4743 88.7565 15.5073 88.8253 13.5265C88.9078 10.7891 84.6833 10.8029 84.587 13.5127Z" fill="#FFFEF2"/>
<path d="M87.6281 15.7411C88.151 22.9764 87.0639 30.542 86.6511 37.7773C86.4997 40.4872 90.7242 40.4872 90.8756 37.7773C91.2884 30.542 92.3618 22.9764 91.8526 15.7411C91.6462 13.0587 87.4354 13.0312 87.6281 15.7411Z" fill="#FFFEF2"/>
<path d="M85.0686 21.3534C84.587 28.1073 84.587 34.8337 85.0686 41.5877C85.2613 44.2838 89.4858 44.2975 89.2932 41.5877C88.8115 34.8337 88.7978 28.1073 89.2932 21.3534C89.472 18.6436 85.2613 18.6573 85.0686 21.3534Z" fill="#FFFEF2"/>
<path d="M40.7591 20.3079C36.8235 21.9585 33.1356 23.4441 30.6312 27.1031C28.1956 30.6657 27.7552 35.0125 27.48 39.1941C27.2736 42.1928 30.1771 44.7376 33.0256 44.7376C36.2043 44.7376 38.3785 42.1928 38.5711 39.1941C38.695 37.3509 38.6674 34.9712 39.7683 33.3756C40.649 32.0963 42.314 31.6011 43.7039 31.0096C46.4698 29.8404 48.4513 27.3369 47.5844 24.1869C46.8826 21.5871 43.5387 19.1387 40.7591 20.3079Z" fill="#FFFEF2"/>
<path d="M38.1033 21.1882C29.4891 21.4221 20.8887 21.3946 12.2882 21.0919C5.13268 20.8443 5.1602 31.9175 12.2882 32.1926C35.1172 33.0592 57.9462 31.4498 80.789 32.4402C87.9308 32.7566 87.917 21.6559 80.789 21.3395C57.9462 20.3354 35.1172 21.9585 12.2882 21.0919C12.2882 24.7922 12.2882 28.4924 12.2882 32.1926C20.8887 32.4952 29.4891 32.5365 38.1033 32.2889C45.2313 32.0963 45.2589 20.9957 38.1033 21.1882Z" fill="#FFFEF2"/>
<path d="M39.6032 41.3263C50.9695 39.3592 62.6936 41.4225 74.1563 41.1199C78.2157 41.0099 83.8025 43.1145 86.995 39.8269C90.8893 35.8241 88.55 30.1706 89.1004 25.3562C89.8985 18.2721 78.7936 18.3271 77.9955 25.3562C77.8166 26.9656 77.913 28.2448 78.0506 29.8542C78.1331 30.8033 77.624 33.692 78.9312 32.2064C80.2385 31.6699 81.5458 31.1197 82.853 30.5832C75.3947 30.1155 67.9227 30.1568 60.4093 29.7992C52.4006 29.414 44.5708 29.2352 36.6309 30.6107C29.6267 31.835 32.599 42.5368 39.6032 41.3263Z" fill="#FFFEF2"/>
<path d="M82.4677 23.4305C82.4815 23.6781 82.4815 23.9257 82.4953 24.187C82.0824 30.3357 92.4442 31.8764 93.4075 25.6589C93.7928 23.1279 94.1093 20.5969 94.2607 18.0383C94.701 10.8993 83.5961 10.9268 83.1558 18.0383C82.8806 22.4814 82.4953 26.9106 81.9999 31.3261C85.6327 30.8309 89.2655 30.3357 92.9121 29.8543C92.8433 29.2078 92.802 28.575 92.802 27.9285C92.9534 26.0578 91.9213 26.5942 89.7196 29.5517C87.917 29.0702 86.1143 28.6026 84.3117 28.1211C83.3209 27.0619 83.0594 27.4608 83.5136 29.3178C83.4998 30.5008 83.4585 31.6838 83.4172 32.8667C83.3347 34.9438 83.2246 37.0072 83.087 39.0705C82.798 43.4997 82.3989 47.929 81.9861 52.3445C85.4401 51.4091 88.8802 50.4738 92.3342 49.5384C92.6369 51.4229 92.7883 51.643 92.7883 50.1987C92.8433 49.2908 92.9121 48.3692 92.9809 47.4613C93.1048 45.8244 94.5221 43.032 91.9901 44.6002C90.1187 44.6002 88.2472 44.6002 86.3895 44.6002C86.4859 44.6552 86.5684 44.7102 86.6648 44.779C85.8116 43.6786 84.9584 42.5644 84.119 41.4639C84.752 43.2796 83.8163 46.4847 83.9126 48.4792C84.0227 50.7626 84.2704 52.936 83.5411 55.1644C84.3942 54.0639 85.2474 52.9497 86.0868 51.8493C84.7383 52.8535 83.1695 53.5275 81.6696 54.2978C75.3122 57.5578 80.9128 67.1316 87.2702 63.8853C89.527 62.7299 92.2929 61.6982 93.6827 59.4423C95.1964 56.9939 95.2514 53.0323 95.1689 50.3087C95.0175 45.3842 96.9027 38.1626 92.0039 35.0264C90.3801 33.9947 88.0271 34.0222 86.4033 35.0264C83.2383 36.9934 82.5365 40.3635 82.1788 43.8161C81.8072 47.365 80.7339 51.9181 82.7567 55.1369C85.8253 60.0476 92.6094 57.6954 93.1048 52.3308C93.5864 47.0211 94.068 41.7115 94.357 36.3881C94.5909 32.0414 96.0633 25.0811 93.2561 21.3672C90.8893 18.2172 86.4033 17.7495 83.6236 20.6106C80.6513 23.6643 81.6421 28.9877 82.1788 32.7705C82.5641 35.4941 85.8391 37.0759 88.2748 36.7458C91.2058 36.3469 92.7745 34.091 93.091 31.2986C93.5864 26.8831 93.9717 22.4538 94.2469 18.0108C90.5453 18.0108 86.8436 18.0108 83.142 18.0108C83.0457 19.579 82.9218 21.1196 82.6742 22.6739C86.307 23.1691 89.9398 23.6643 93.5864 24.1458C93.6827 22.7977 93.5313 21.7386 93.1598 20.4456C91.2608 13.6091 80.5412 16.5252 82.4677 23.4305Z" fill="#FFFEF2"/>
<path d="M77.1837 40.2533C76.7296 40.666 73.3307 40.1158 72.8903 40.0745C70.496 39.9095 68.1154 39.7444 65.721 39.5656C60.946 39.2354 56.1573 38.8915 51.3824 38.5614C46.5799 38.2175 41.7774 37.9149 36.9887 37.4747C34.8283 37.2822 32.6678 36.9245 30.5212 36.7044C28.347 36.4844 28.2919 36.5531 28.5259 34.3935C27.9892 35.7003 27.4388 37.0071 26.9021 38.3138C27.081 38.0937 27.2736 37.8599 27.4525 37.6398C26.1453 38.1763 24.838 38.7265 23.5307 39.263C23.7509 39.2767 23.9573 39.3042 24.1775 39.318C22.8702 38.7815 21.5629 38.2313 20.2557 37.6948C20.407 37.8737 20.5722 38.0387 20.7235 38.2175C20.1869 36.9108 19.6364 35.604 19.0998 34.2972C19.1273 34.5311 19.1411 34.7649 19.1686 34.9988C19.7052 33.692 20.2557 32.3852 20.7923 31.0784C21.8106 29.8955 25.7187 31.2985 21.7418 29.7579C20.5997 29.3177 19.4576 28.9188 18.2466 28.6437C17.2834 28.4236 16.3201 28.2861 15.3431 28.1623C15.0129 28.121 11.958 27.4333 12.8387 27.9147C13.6918 29.0151 14.545 30.1293 15.3844 31.2297C15.4119 31.1747 15.4532 31.106 15.4807 31.0509C11.8479 30.5557 8.21507 30.0605 4.56848 29.5791C4.18318 35.3014 4.16942 40.9961 4.51344 46.7184C4.94002 53.8162 16.0449 53.8713 15.6183 46.7184C15.2743 40.9961 15.2881 35.3014 15.6734 29.5791C16.1137 23.004 6.74267 22.5088 4.76113 28.1073C2.6007 34.2147 6.4537 38.2726 12.3708 38.9741C17.2283 39.5381 22.7876 43.4996 27.3837 40.1708C31.6495 37.0758 30.8789 30.0468 25.6361 28.4649C19.6364 26.6492 16.8155 32.8667 17.476 37.7774C19.1548 50.5149 38.4198 48.7817 47.7908 49.442C54.9602 49.9509 62.1295 50.4462 69.3126 50.9551C75.0508 51.354 80.4312 52.2206 85.041 48.1352C90.3939 43.3483 82.5091 35.5215 77.1837 40.2533Z" fill="#FFFEF2"/>
<path d="M9.93522 47.7363C20.8199 52.4131 31.3881 56.3472 43.2911 57.3651C49.1532 57.8603 55.0703 57.9566 60.9461 58.218C64.2074 58.3693 67.4687 58.5206 70.73 58.6856C73.5509 58.8232 77.9956 58.2592 80.5551 59.4835C79.702 58.383 78.8488 57.2688 78.0094 56.1684C78.8213 58.2592 68.886 58.0666 67.276 58.273C62.4736 58.9057 57.85 60.0337 53.2952 61.6843C46.6212 64.0915 49.511 74.8345 56.2537 72.3861C61.1663 70.6116 66.2027 69.3048 71.4318 68.9334C76.2205 68.5896 81.1468 69.1673 85.0411 65.7972C88.0272 63.2112 89.9537 59.0433 89.2519 55.0404C88.2886 49.5795 83.5825 48.5203 78.7387 48.0389C68.1567 46.9935 57.4371 47.131 46.8276 46.512C35.654 45.8655 25.7738 42.5505 15.5633 38.1487C9.05454 35.3564 3.38513 44.9164 9.93522 47.7363Z" fill="#FFFEF2"/>
<path d="M5.29786 52.9909C5.32538 53.1422 5.3529 53.2935 5.38042 53.4449C8.83436 52.5095 12.2745 51.5741 15.7285 50.6387C15.5496 50.3086 15.3844 49.9785 15.2056 49.6621C13.224 44.2149 3.6741 44.4625 4.29333 51.1339C4.41717 52.5232 4.55478 53.8988 4.67863 55.2881C4.95384 58.2455 7.00419 60.8728 10.2242 60.8315C20.4346 60.7215 30.5487 61.9733 40.6766 63.1975C50.7357 64.408 61.0012 64.6418 70.9501 66.5813C71.4455 62.9499 71.9409 59.3184 72.4225 55.6732C62.2121 56.2647 51.9879 56.6774 41.7637 56.5123C36.9612 56.4298 32.1587 56.2372 27.37 55.8796C22.4437 55.5082 16.2651 55.632 11.6415 53.775C12.935 55.068 14.2285 56.361 15.5221 57.654C15.4945 57.2826 15.467 56.9112 15.4533 56.5398C15.068 49.442 3.96307 49.387 4.34837 56.5398C4.67863 62.6748 7.3482 64.6143 13.3616 65.4671C19.8016 66.375 26.2692 66.994 32.7642 67.3241C45.9882 67.9981 59.226 67.5442 72.4363 66.7739C78.3259 66.43 80.4037 57.1313 73.9087 55.8658C63.5469 53.8575 52.9374 53.5411 42.4655 52.3032C31.7459 51.0376 21.0539 49.6208 10.2242 49.7309C12.0681 51.5741 13.9258 53.4311 15.7697 55.2743C15.6459 53.885 15.5083 52.5095 15.3844 51.1202C11.7516 51.6154 8.1188 52.1106 4.47222 52.592C4.94008 53.885 5.42171 55.0405 6.10974 56.2235C8.72427 60.6802 17.022 59.1121 16.4578 53.4173C16.2376 51.1614 15.756 49.4283 14.8615 47.3649C12.0406 40.8448 2.47692 46.4983 5.29786 52.9909Z" fill="#FFFEF2"/>
<path d="M4.65112 62.2484C4.98137 63.4864 5.06394 64.7381 4.92633 66.0036C8.55916 65.5084 12.192 65.0132 15.8386 64.5318C15.9349 64.3392 16.045 64.1604 16.1413 63.9678C12.5085 63.4726 8.87565 62.9774 5.22907 62.496C5.9171 73.2665 16.7743 75.0547 25.6224 75.1923C30.7827 75.2748 35.9567 75.206 41.117 75.3161C46.2635 75.4261 52.2769 74.8346 57.2583 76.1139C64.1799 77.8883 67.1384 67.1866 60.2168 65.4121C53.1163 63.5827 44.8874 64.2567 37.608 64.1604C35.4338 64.1329 16.4991 65.137 16.3339 62.5097C15.9211 56.1272 7.62343 55.1506 5.42172 61.0379C4.59608 63.2663 4.6924 65.2196 5.11898 67.503C6.28864 73.8442 15.8523 72.0698 16.0312 66.0311C16.1 63.7202 15.8386 61.5881 15.3569 59.3322C13.8845 52.3169 3.17872 55.2744 4.65112 62.2484Z" fill="#FFFEF2"/>
<path d="M6.7151 68.6034C6.38485 69.0023 6.261 69.4287 6.34356 69.8689C8.43519 69.0161 10.5268 68.1632 12.6184 67.3241C12.5084 67.2966 12.412 67.2829 12.3019 67.2554C13.4028 68.1082 14.5174 68.9611 15.6183 69.8001C15.5495 69.3049 15.6183 68.8097 15.8384 68.3421C12.2056 67.8469 8.5728 67.3517 4.92621 66.8702C4.73356 71.6296 4.45835 76.389 4.36202 81.1484C4.29322 85.0962 5.72433 88.7276 5.68305 92.5929C9.13699 91.6576 12.5772 90.7222 16.0311 89.7868C15.9348 90.4883 15.9348 90.5159 16.0311 89.8556C16.0999 89.3191 16.1962 88.7827 16.2925 88.26C12.6597 87.7648 9.0269 87.2696 5.38031 86.7881C5.18767 88.989 4.99502 91.1761 4.80237 93.377C7.14168 91.5888 9.481 89.8143 11.8341 88.0261C11.7102 87.9849 11.5864 87.9298 11.4625 87.8886C4.77484 85.3438 1.8851 96.0731 8.50399 98.5903C8.62784 98.6316 8.75169 98.6866 8.87553 98.7279C12.5359 100.117 15.6183 96.6233 15.9072 93.377C16.0999 91.1761 16.2925 88.989 16.4852 86.7881C17.0356 80.6257 6.63254 79.1401 5.57296 85.3163C4.96749 88.879 4.2657 92.2215 6.42613 95.3991C9.43972 99.8283 16.7054 98.3427 16.7742 92.5929C16.8155 88.6451 15.3981 85.0549 15.4531 81.1484C15.5219 76.389 15.8247 71.6158 16.0173 66.8702C16.265 60.3776 7.0316 59.6624 5.1051 65.3984C3.72903 69.525 4.41707 76.8979 9.63237 78.0396C12.1093 78.5761 14.5449 77.6683 15.9072 75.4949C16.6366 74.3257 16.9668 72.8813 17.3934 71.5746C19.6639 64.7519 8.94434 61.8357 6.7151 68.6034Z" fill="#FFFEF2"/>
<path d="M9.06826 91.8777C8.94441 91.9465 8.82056 92.0153 8.69672 92.0978C9.63244 91.8502 10.5682 91.5888 11.5039 91.3412C11.3663 91.3412 11.2149 91.3412 11.0773 91.3412C11.0773 95.0415 11.0773 98.7417 11.0773 102.442C15.1505 102.304 19.2787 103.295 23.3931 103.267C30.5349 103.24 30.5487 92.1391 23.3931 92.1666C19.2925 92.1803 15.1505 91.2037 11.0773 91.3412C3.96304 91.5751 3.908 102.469 11.0773 102.442C12.4259 102.442 13.513 102.139 14.6689 101.465C20.8474 97.8751 15.2606 88.2738 9.06826 91.8777Z" fill="#FFFEF2"/>
<path d="M22.5675 94.8213C21.8795 91.0523 21.508 87.077 21.8657 83.2392C21.852 82.5514 21.9483 81.8774 22.1409 81.2309C22.9115 78.9612 21.0951 78.7549 16.7055 80.6119C16.5266 80.9833 17.0908 84.3947 16.733 84.5047C19.0035 85.7977 21.2878 87.0907 23.5583 88.3838C23.2831 86.5543 26.2967 83.9958 27.4388 82.9091C29.0626 81.3822 31.4019 80.6257 32.9431 79.2088C33.3009 79.1126 33.6586 79.0025 34.0164 78.9062C33.1357 78.0671 32.2688 77.2143 31.3881 76.3752C31.0992 76.5403 30.7964 78.5073 30.6313 78.8787C30.0258 80.2955 28.4158 83.1567 26.6957 83.418C28.1268 83.6106 29.5442 83.7894 30.9753 83.982C32.8055 84.9311 30.4799 85.2062 29.9295 85.8528C30.6313 85.0274 31.0992 87.8886 31.3469 85.5501C31.5395 83.7206 30.6863 85.5226 30.0121 85.784C29.6405 86.0728 29.2277 86.2792 28.7736 86.3892C27.4663 86.7193 27.9204 86.9532 30.1497 87.077C30.6863 88.3838 31.2368 89.6905 31.7734 90.9973C31.7459 86.1691 38.5712 83.3493 42.3967 82.4001C44.2681 81.9324 45.2864 82.7165 43.9241 80.4468C42.4517 77.9846 42.6719 79.7316 41.2545 81.0521C40.5803 81.6848 39.8372 82.2213 39.0253 82.689C37.9795 83.2805 35.7503 83.418 37.374 84.2434C38.2272 85.3438 39.0804 86.458 39.9198 87.5584C40.1675 88.9065 40.8004 87.4759 41.571 86.9807C42.3554 86.4717 43.1535 86.0866 44.0893 85.9765C46.7726 85.6464 47.0478 87.0495 48.7679 88.37C49.2633 88.7552 49.7999 87.8886 48.9193 87.8748C47.7496 87.8611 46.4974 88.3838 45.2727 88.37C44.4608 88.3563 42.8921 88.4388 42.1765 87.9711C40.9381 87.1595 41.3646 88.2325 41.4885 86.2242C41.9151 79.0851 30.7964 79.1126 30.3836 86.2242C29.6405 98.8104 45.314 102.634 54.7951 97.4349C65.3633 91.6301 58.249 77.9846 49.0018 75.3848C43.7728 73.913 38.5024 75.3436 34.2916 78.5899C30.3286 81.6436 26.1591 88.4113 30.6451 92.9643C38.1309 100.571 54.396 87.5722 54.3272 79.0713C54.2171 64.4217 32.6541 72.9638 26.9572 78.0809C23.3244 81.3272 19.2512 87.3383 20.8612 92.4691C22.6639 98.1777 29.1176 98.3978 33.7412 96.3207C38.0621 94.3812 42.2728 90.337 42.2316 85.2338C42.1903 79.7866 37.1539 75.9488 32.2 75.0409C27.5351 74.1881 22.5125 76.0451 21.0676 80.887C19.664 85.6052 21.2603 92.813 26.7095 94.1336C37.2915 96.6783 49.2495 73.9818 37.952 68.6859C31.9798 65.8935 25.1408 70.2815 20.7236 74.0643C15.4808 78.5623 11.8067 84.2846 12.88 91.3412C13.3066 94.2023 17.1183 96.0868 19.7053 95.2202C24.9206 93.4733 27.2462 89.2641 27.8241 83.982C28.3745 79.0438 26.8058 72.5512 21.3703 70.928C15.8523 69.2911 12.2745 74.2431 11.2838 78.9613C10.004 85.0962 10.7608 91.6851 11.8755 97.765C13.1414 104.78 23.8473 101.809 22.5675 94.8213Z" fill="#FFFEF2"/>
<path d="M35.1172 80.8595C33.576 82.6202 32.0073 84.3809 30.4661 86.1553C29.3102 87.4759 26.9984 89.5117 26.7644 91.3412C26.1865 92.4004 26.503 92.3041 27.6726 91.0386C29.1726 90.172 29.3239 89.8831 28.1267 90.172C27.4938 90.0344 26.4067 90.4883 25.8425 90.7222C24.1774 91.3962 22.8839 92.4966 22.1133 94.1198C20.2006 98.1089 22.5537 102.07 26.902 102.469C36.3419 103.336 45.8643 102.8 55.3316 102.634C62.4734 102.511 62.4872 91.41 55.3316 91.5338C45.878 91.7126 36.3419 92.2353 26.902 91.3687C28.4983 94.1473 30.0945 96.9397 31.6908 99.7183C29.6404 101.025 29.6267 101.396 31.6495 100.86C32.4889 100.557 33.287 100.172 34.0576 99.732C35.1034 99.003 35.7915 98.1777 36.3969 97.0497C38.0757 93.8997 40.5664 91.4375 42.947 88.7276C47.6669 83.363 39.8371 75.4811 35.1172 80.8595Z" fill="#FFFEF2"/>
<path d="M28.9937 91.1211C28.9111 91.1348 28.8286 91.1486 28.7598 91.1623C29.2552 91.0935 29.7505 91.0248 30.2322 90.9697C29.5441 91.0248 28.8699 90.9147 28.1818 90.9697C27.5076 91.0248 26.792 91.0935 26.1452 91.2999C24.9618 91.685 24.1775 92.249 23.2142 93.0193C22.1822 93.8721 21.5905 95.6604 21.5905 96.9396C21.5905 98.3014 22.1959 99.9246 23.2142 100.86C24.2738 101.837 25.6636 102.552 27.136 102.483C27.6314 102.414 28.1268 102.346 28.6084 102.29C29.5441 102.029 30.3698 101.548 31.0578 100.86C31.1129 100.819 31.1541 100.777 31.2092 100.736C30.8376 101.025 30.4661 101.314 30.0808 101.603C30.1771 101.534 30.2872 101.479 30.4111 101.424C29.9707 101.616 29.5304 101.795 29.09 101.988C29.2827 101.919 29.4478 101.892 29.6405 101.85C29.1451 101.919 28.6497 101.988 28.1681 102.043C28.5671 102.002 28.9662 102.043 29.3652 102.057C30.2322 102.098 31.0853 101.96 31.9385 101.809C33.232 101.575 34.6081 100.365 35.2548 99.2643C35.9566 98.0813 36.2456 96.3206 35.819 94.9863C35.3787 93.6383 34.553 92.3453 33.2733 91.6713C31.8835 90.956 30.5349 90.8459 28.9937 91.1211Z" fill="#FFFEF2"/>
<path d="M39.4243 99.3193C46.6487 98.0263 53.9969 99.2918 61.2075 98.0676C64.1385 97.5724 67.5099 96.6645 69.4088 94.2023C71.2528 91.8088 70.8124 88.4387 70.4271 85.6463C69.5877 79.5252 66.2026 74.8483 59.4874 74.9721C53.2263 75.0959 48.1211 79.2501 44.6809 84.1057C42.0801 87.7785 45.6304 92.2352 49.4696 92.4553C54.8363 92.758 60.3681 89.9656 64.7852 87.1319C68.8034 84.5459 73.9774 81.107 76.1103 76.664C78.3533 71.9871 75.1608 67.5991 70.3033 67.0352C64.5926 66.3612 60.024 69.8413 56.1435 73.5553C51.2722 78.2046 57.437 84.6972 62.8725 82.2763C65.3219 81.1896 67.0007 79.4564 68.4181 77.2005C69.9868 74.697 68.996 71.038 66.4228 69.6075C61.7441 67.0077 55.2491 70.4603 51.1484 72.8675C45.8781 75.9762 49.3182 85.0961 55.428 83.0053C59.2397 81.6985 62.2533 79.4426 64.0835 75.7974C66.0099 71.9872 63.6431 67.6267 59.2947 67.4478C53.4327 67.2002 50.0613 70.9968 47.9422 76.0038C46.7725 78.7824 49.2081 82.0837 51.8227 82.8265C55.0152 83.7481 57.4921 81.6985 58.648 78.9474C58.8544 78.8099 59.0746 78.6723 59.281 78.5348C57.6847 75.7562 56.0885 72.9638 54.4922 70.1852C53.9281 71.2994 53.6804 71.8771 52.4694 72.2898C53.9005 75.6736 55.3179 79.0575 56.749 82.4276C57.9187 81.7398 59.0608 81.0933 60.3268 80.6119C62.3358 79.8415 63.4229 80.6256 60.8084 79.1675C60.1479 76.6365 59.4874 74.1055 58.8131 71.5745C58.4966 72.1935 57.9737 72.5649 57.2581 72.6749C59.5011 75.5773 61.7441 78.4797 63.9871 81.3959C64.8816 80.5431 65.7485 79.6214 66.7943 78.9474C67.4273 78.5485 68.996 78.2184 68.4594 77.9158C67.5374 76.3201 66.6292 74.7245 65.7072 73.1289C66.5053 71.3269 66.2714 71.3131 64.9779 73.0601C64.5926 73.4177 64.1935 73.7754 63.8082 74.133C62.3771 75.4123 60.7946 76.5265 59.1709 77.5581C56.405 79.3463 52.8822 81.561 49.4696 81.3684C51.0658 84.147 52.6621 86.9394 54.2583 89.718C55.2766 88.2737 57.0517 86.4304 58.9232 86.2241C60.0378 86.1003 58.7718 85.275 59.3773 86.4717C59.6663 87.0494 59.8039 88.7551 59.68 89.3741C60.5332 88.2737 61.3864 87.1595 62.2258 86.059C59.1296 88.3562 53.8455 87.4896 50.2264 87.4896C45.5753 87.5034 41.0205 87.806 36.4382 88.6175C29.4478 89.8693 32.4201 100.571 39.4243 99.3193Z" fill="#FFFEF2"/>
<path d="M41.2545 86.7744C39.2179 87.022 37.1951 87.2008 35.1448 87.2421C33.576 87.2833 31.4294 87.5172 29.9019 87.1045C31.0028 87.9574 32.1174 88.8102 33.2183 89.6493C33.1632 89.5667 33.1082 89.4842 33.0531 89.3879C33.2458 90.8185 33.4247 92.2353 33.6173 93.6659C33.6311 93.5696 33.6586 93.4733 33.6724 93.377C34.2228 90.4333 32.8467 87.3934 29.7919 86.5543C27.081 85.8115 23.517 87.4759 22.9666 90.4333C21.0813 100.42 35.2411 98.6179 41.2683 97.8751C44.2406 97.5037 46.8138 95.5916 46.8138 92.3316C46.8138 89.608 44.2543 86.403 41.2545 86.7744Z" fill="#FFFEF2"/>
<path d="M64.0284 73.3628C63.2028 74.8759 62.5698 75.206 60.8773 75.5224C63.2166 77.3106 65.5559 79.0851 67.909 80.8733C67.675 83.5143 68.5695 81.4235 69.8079 80.4606C70.8262 79.6628 72.0785 78.9062 73.2756 78.411C74.2664 78.0121 75.6425 78.0947 76.5094 77.682C78.3809 77.8333 78.2708 76.5128 76.1654 73.7067C75.8351 73.968 75.4498 74.0918 75.037 74.0643C74.7893 74.023 72.4775 73.8717 73.0004 74.477C72.3674 73.7342 73.7848 73.5554 73.8536 73.5416C76.0003 73.1014 77.9405 74.2019 79.234 75.77C81.9862 79.1126 87.4492 77.0355 88.5087 73.3215C88.55 73.1702 88.5913 73.0189 88.6326 72.8676C90.6004 65.9899 79.8945 63.0462 77.9268 69.9102C77.8855 70.0615 77.8442 70.2128 77.8029 70.3641C80.8991 69.5525 83.9952 68.7272 87.0776 67.9156C81.5183 61.1754 68.2805 59.8274 63.5193 68.1632C58.015 77.8058 67.5237 86.8431 77.3763 84.9449C81.6834 84.1196 85.7153 81.0658 86.6786 76.6503C87.6831 72.0148 84.4906 67.8881 79.9909 66.8702C71.6656 64.972 57.5747 71.6434 56.7766 80.8733C56.4463 84.7523 60.5745 86.8294 63.8083 86.2242C68.0741 85.4126 71.528 82.7578 73.5921 78.9613C77.0323 72.6888 67.4411 67.0765 64.0284 73.3628Z" fill="#FFFEF2"/>
<path d="M81.1054 64.2705C80.789 65.3984 80.2936 66.4301 79.5918 67.3655C82.9769 67.8056 86.362 68.2458 89.7334 68.686C89.2518 67.9294 89.3756 67.3242 90.0774 66.8703C88.7702 67.4067 87.4629 67.9569 86.1556 68.4934C85.619 68.3146 85.0823 68.1358 84.5456 67.957C83.6925 66.8565 82.8393 65.7423 81.9999 64.6419C82.2201 63.2526 82.0137 63.1976 81.3669 64.4493C84.752 64.8895 88.1372 65.3296 91.5085 65.7698C91.2333 64.7106 90.7379 64.862 90.0224 66.2375C88.5913 66.0449 87.1739 65.8661 85.7428 65.6735C85.9492 65.7973 86.1556 65.9211 86.362 66.0449C89.7609 68.0945 95.0588 65.5085 94.7148 61.258C94.6597 60.5427 94.6047 59.8275 94.5359 59.0984C94.068 53.2661 84.986 51.079 83.6237 57.6266C82.2889 64.0504 83.5824 70.8318 82.1925 77.1456C81.5733 79.9517 79.1514 81.5473 76.7708 82.8954C75.1884 83.7895 70.7712 86.1279 69.0236 85.7703C70.3171 87.0633 71.6106 88.3563 72.9041 89.6493C71.8583 91.1624 70.8124 92.6755 69.7804 94.1886C68.6795 93.3358 67.5649 92.4829 66.4641 91.6439C67.0695 90.4196 67.675 89.2092 68.2805 87.9849C70.3721 88.8378 72.4637 89.6906 74.5554 90.5297C74.4178 89.0853 73.2206 88.7415 70.9363 89.4843C69.0648 88.3563 67.4411 88.4389 66.0788 89.7456C64.9366 90.2958 63.8633 91.3137 62.5973 91.6301C60.1617 92.2216 56.7215 91.355 54.2583 91.0386C54.2583 94.7389 54.2583 98.4391 54.2583 102.139C62.1845 102.923 70.0831 103.088 78.0368 102.634C85.1373 102.236 85.1924 91.1212 78.0368 91.5338C70.0969 91.9878 62.1845 91.8227 54.2583 91.0386C47.0753 90.3234 47.3229 101.245 54.2583 102.139C60.1066 102.896 65.0742 103.171 70.3308 100.145C74.693 97.6413 79.7982 93.8585 79.0001 88.1362C78.2707 82.9642 72.7802 79.5803 67.9227 82.1526C63.1065 84.7111 62.1019 91.7677 64.9642 96.1282C66.2164 98.0402 68.886 99.5533 71.239 98.6729C78.8762 95.8393 79.9358 82.8128 69.9868 83.0054C61.7854 83.1567 58.3728 96.4583 67.9089 96.7334C75.5461 96.9535 84.6832 92.4692 89.5545 86.7332C95.7331 79.484 92.5544 69.1537 94.3295 60.5702C90.6967 60.075 87.0638 59.5799 83.4172 59.0984C83.4723 59.8137 83.5273 60.529 83.5961 61.258C86.3758 59.6624 89.1692 58.0668 91.9489 56.4711C84.2291 51.808 78.5322 62.1521 80.7752 68.7273C82.399 73.5004 88.0959 73.9268 90.9168 70.0478C94.2469 65.4672 93.5589 57.2552 86.4446 57.3515C79.4542 57.434 77.5277 66.2788 78.9863 71.6297C80.2798 76.334 86.6372 76.9668 89.1279 72.9502C90.2701 71.1069 91.082 69.25 91.77 67.2004C94.0818 60.4327 83.3622 57.5165 81.1054 64.2705Z" fill="#FFFEF2"/>
<path d="M76.7709 101.988C78.1883 102.07 79.5231 102.07 80.9542 101.974C80.0184 98.5215 79.0827 95.0826 78.147 91.63C77.5278 91.9326 76.9085 92.249 76.2893 92.5516C70.2346 95.5641 74.8031 103.625 80.5689 102.689C85.1925 101.933 87.9859 97.9713 92.0453 95.963C93.7379 95.1239 94.825 93.0056 94.7974 91.1761C94.7561 88.4112 93.7791 85.7289 93.8342 82.9916C93.8892 80.3643 94.6736 77.792 94.7011 75.1372C90.9995 75.1372 87.2979 75.1372 83.5962 75.1372C83.61 78.4385 83.6375 81.7398 83.6513 85.0411C86.8162 83.7344 89.9674 82.4276 93.1324 81.1208C94.1644 82.7577 94.4121 82.5514 93.8892 80.4881C93.7929 79.3326 93.6966 78.1909 93.6278 77.0355C93.4764 74.7245 93.3938 72.4274 93.325 70.1165C89.8711 71.0518 86.4309 71.9872 82.977 72.9226C83.3485 73.514 83.5137 74.1468 83.4861 74.8483C83.8439 81.9462 94.4534 82.0287 94.591 74.8483C94.7011 69.2499 94.0819 63.7339 92.8159 58.2867C89.4308 59.7173 86.0456 61.1341 82.6743 62.5647C83.8714 64.9169 83.899 67.668 85.1512 70.1027C88.4262 76.4577 98.0037 70.8455 94.7424 64.5042C93.5452 62.1658 93.4902 59.3872 92.2655 56.9662C89.3207 51.1752 80.7478 55.3156 82.1238 61.2442C83.1696 65.7697 83.5825 70.2127 83.4999 74.8621C87.2015 74.8621 90.9032 74.8621 94.6048 74.8621C94.4672 72.0972 93.8479 69.8001 92.5682 67.3378C90.0362 62.4271 82.0688 64.7518 82.2202 70.144C82.3715 75.8662 81.4083 84.3671 85.275 89.0027C88.4538 92.7992 94.7837 89.608 94.7561 85.0824C94.7424 81.7811 94.7149 78.4798 94.7011 75.1785C94.6598 68.0394 83.6926 68.0256 83.5962 75.1785C83.5549 77.8333 82.7981 80.3918 82.7293 83.0328C82.6467 85.8252 83.6513 88.4662 83.6926 91.2173C84.6145 89.6217 85.5227 88.0261 86.4447 86.4304C83.7063 87.7785 80.5138 91.5612 77.6241 92.0427C79.0552 95.4265 80.4725 98.8104 81.9037 102.18C82.5229 101.878 83.1421 101.561 83.7614 101.259C88.6189 98.8379 86.3896 90.5433 80.9542 90.9147C79.5368 91.011 78.202 91.011 76.7709 90.9285C69.6429 90.4608 69.6566 101.561 76.7709 101.988Z" fill="#FFFEF2"/>
<path d="M9.59118 99.9108C8.18759 99.8282 6.42622 99.3193 5.33912 100.433C5.99964 100.433 6.64639 100.433 7.3069 100.433C6.97665 100.158 7.73348 93.9134 7.74725 93.3219C7.84357 90.7909 7.95366 88.2599 8.04998 85.7426C8.11878 83.9544 5.33912 83.9544 5.27032 85.7426C5.13271 89.2365 4.99511 92.7442 4.84374 96.2381C4.77494 97.8199 3.88049 101.231 5.32536 102.387C5.90331 102.854 6.71519 102.978 7.29314 102.387C6.63263 102.566 6.81152 102.621 7.80229 102.566C8.394 102.593 8.98571 102.634 9.57742 102.662C11.3801 102.786 11.3663 100.007 9.59118 99.9108Z" fill="#FFFEF2"/>
<path d="M4.66479 87.1595C4.66479 88.7139 4.66479 90.2545 4.66479 91.8089C4.66479 93.5971 7.44445 93.5971 7.44445 91.8089C7.44445 90.2545 7.44445 88.7139 7.44445 87.1595C7.44445 85.3713 4.66479 85.3713 4.66479 87.1595Z" fill="#FFFEF2"/>
<path d="M7.41692 67.7919C7.33436 64.1192 7.40316 60.4465 7.63709 56.7737C7.74718 54.9855 4.96752 54.9993 4.85743 56.7737C4.6235 60.4465 4.5547 64.1192 4.63726 67.7919C4.67854 69.5663 7.4582 69.5801 7.41692 67.7919Z" fill="#FFFEF2"/>
<path d="M10.0315 1.2841C20.1869 1.2841 30.3423 1.2841 40.4977 1.2841C50.6255 1.2841 60.7397 1.2841 70.8675 1.2841C76.5645 1.2841 82.2614 1.2841 87.9583 1.2841C88.7151 1.2841 88.7151 0.114865 87.9583 0.114865C77.8029 0.114865 67.6475 0.114865 57.4921 0.114865C47.3643 0.114865 37.2502 0.114865 27.1223 0.114865C21.4254 0.114865 15.7284 0.114865 10.0315 0.114865C9.27466 0.101109 9.27466 1.2841 10.0315 1.2841Z" fill="#373838"/>
<path d="M0.743044 11.0504C11.3525 11.0504 21.9483 11.0504 32.5578 11.0504C43.126 11.0504 53.6942 11.0504 64.2762 11.0504C70.2346 11.0504 76.1792 11.0504 82.1376 11.0504C82.8944 11.0504 82.8944 9.88123 82.1376 9.88123C71.5281 9.88123 60.9323 9.88123 50.3228 9.88123C39.7546 9.88123 29.1864 9.88123 18.6044 9.88123C12.646 9.88123 6.70143 9.88123 0.743044 9.88123C-0.0137945 9.88123 -0.0137945 11.0504 0.743044 11.0504Z" fill="#373838"/>
<path d="M9.64626 0.293699C5.97215 2.9485 3.05489 6.45613 0.192662 9.93626C-0.288962 10.514 0.53668 11.3531 1.0183 10.7616C3.81173 7.37776 6.64643 3.89762 10.238 1.29784C10.8434 0.871422 10.2655 -0.146475 9.64626 0.293699Z" fill="#373838"/>
<path d="M87.3941 0.321213C84.9034 3.36118 83.3072 6.95137 81.766 10.5416C81.477 11.2293 82.4816 11.8208 82.7843 11.133C84.2842 7.65289 85.7979 4.10398 88.2198 1.14655C88.7014 0.56882 87.8757 -0.256518 87.3941 0.321213Z" fill="#373838"/>
<path d="M87.6005 1.05022C87.8207 1.8893 88.3298 2.57709 88.839 3.27861C89.4445 4.1177 90.0362 4.94301 90.6416 5.78209C91.8251 7.41899 93.0085 9.06965 94.1919 10.7065C94.6322 11.3118 95.6505 10.7341 95.2102 10.1151C94.0681 8.51944 92.9122 6.93756 91.77 5.34193C91.2058 4.55787 90.6416 3.7738 90.0775 2.98974C89.5683 2.28821 88.9628 1.5867 88.7427 0.747616C88.5362 0.0185777 87.4079 0.321178 87.6005 1.05022Z" fill="#373838"/>
<path d="M81.8348 13.2514C81.8486 24.9985 81.8624 36.732 81.8624 48.4791C81.8761 60.185 81.8486 71.8909 81.9449 83.6106C82 90.1307 82.1101 96.6508 82.3302 103.171C82.3577 103.927 83.5274 103.927 83.4999 103.171C83.1146 91.5062 83.0733 79.8416 83.0458 68.177C83.032 56.4435 83.0183 44.7101 83.0183 32.963C83.0183 26.3879 83.0045 19.8265 83.0045 13.2514C83.0045 12.4948 81.8348 12.4948 81.8348 13.2514Z" fill="#373838"/>
<path d="M3.59143 13.2514C3.60519 24.9985 3.61895 36.732 3.61895 48.4791C3.63271 60.185 3.60519 71.8909 3.70151 83.6106C3.75656 90.1307 3.86664 96.6508 4.08681 103.171C4.11433 103.927 5.28399 103.927 5.25647 103.171C4.87117 91.5062 4.82989 79.8416 4.80237 68.177C4.78861 56.4435 4.77485 44.7101 4.77485 32.963C4.77485 26.3879 4.76109 19.8265 4.76109 13.2514C4.76109 12.4948 3.57767 12.4948 3.59143 13.2514Z" fill="#373838"/>
<path d="M94.0131 10.5415C94.1782 21.257 94.302 31.9725 94.3708 42.688C94.4396 53.4173 94.4672 64.1328 94.4534 74.8621C94.4396 80.9007 94.4121 86.9532 94.3846 92.9918C94.3846 93.7484 95.5543 93.7484 95.5543 92.9918C95.6231 82.2626 95.6506 71.547 95.6231 60.8178C95.5955 50.1023 95.5405 39.373 95.4166 28.6575C95.3478 22.6188 95.279 16.5802 95.1827 10.5415C95.1827 9.79872 94.0131 9.78496 94.0131 10.5415Z" fill="#373838"/>
<path d="M0.0412293 10.3489C-0.0275742 11.1605 0.0137079 11.972 0.151315 12.7699C0.178836 12.9074 0.302683 13.0587 0.426529 13.1137C0.550375 13.1825 0.743025 13.2238 0.880632 13.1688C1.21089 13.0587 1.3485 12.7699 1.29345 12.4535C1.27969 12.3985 1.27969 12.3572 1.26593 12.3022C1.26593 12.2884 1.23841 12.1371 1.25217 12.2334C1.26593 12.3297 1.23841 12.1509 1.23841 12.1371C1.23841 12.0959 1.22465 12.0546 1.22465 12.0133C1.21089 11.8345 1.19713 11.6557 1.18337 11.4631C1.16961 11.0917 1.18337 10.7203 1.21089 10.3489C1.23841 10.0463 0.921914 9.74365 0.619179 9.75741C0.275161 9.77117 0.0687507 10.0188 0.0412293 10.3489Z" fill="#373838"/>
<path d="M0.880617 13.3064C11.4901 13.3614 22.0858 13.3476 32.6953 13.2926C43.2636 13.2376 53.8318 13.1275 64.4137 12.9625C70.3721 12.8662 76.3167 12.7562 82.2751 12.6324C83.032 12.6186 83.032 11.4494 82.2751 11.4631C71.6794 11.6832 61.0699 11.862 50.4604 11.9721C39.8922 12.0821 29.324 12.1509 18.742 12.1647C12.7836 12.1647 6.839 12.1647 0.880617 12.1372C0.123779 12.1234 0.123779 13.3064 0.880617 13.3064Z" fill="#373838"/>
<path d="M1.67871 11.7245C6.60504 11.6145 11.5314 11.5044 16.4715 11.3944C17.2283 11.3806 17.2283 10.1977 16.4715 10.2252C11.5451 10.3352 6.6188 10.4453 1.67871 10.5553C0.921874 10.5691 0.921874 11.7383 1.67871 11.7245Z" fill="#373838"/>
<path d="M2.07776 11.752C8.33888 11.5319 14.6 11.4907 20.8611 11.6282C21.6179 11.642 21.6179 10.4728 20.8611 10.459C14.6 10.3214 8.33888 10.3627 2.07776 10.5828C1.32092 10.6103 1.32092 11.7795 2.07776 11.752Z" fill="#373838"/>
<path d="M1.40354 12.3572C7.44449 12.2334 13.4854 12.2609 19.5126 12.426C20.2695 12.4535 20.2695 11.2706 19.5126 11.2568C13.4717 11.078 7.43073 11.0642 1.40354 11.188C0.660467 11.2018 0.646706 12.371 1.40354 12.3572Z" fill="#373838"/>
<path d="M8.60034 12.3848C15.7697 12.2472 22.939 12.1922 30.1083 12.2335C32.1311 12.2472 34.154 12.261 36.1768 12.2885C36.9336 12.3023 36.9336 11.1193 36.1768 11.1193C29.0075 11.0367 21.8381 11.023 14.6688 11.1193C12.646 11.1468 10.6232 11.1743 8.60034 11.2156C7.84351 11.2293 7.84351 12.3985 8.60034 12.3848Z" fill="#373838"/>
<path d="M21.2603 11.642C31.0579 11.5595 40.8555 11.6283 50.6531 11.8346C53.419 11.8896 56.1849 11.9721 58.9508 12.0547C59.7076 12.0822 59.7076 10.8992 58.9508 10.8855C49.1532 10.5828 39.3556 10.4315 29.558 10.4315C26.7921 10.4315 24.0262 10.4453 21.2603 10.4728C20.5034 10.4728 20.5034 11.6558 21.2603 11.642Z" fill="#373838"/>
<path d="M35.3787 12.3022C45.1488 12.261 54.9051 12.2335 64.6752 12.1922C67.4273 12.1784 70.1932 12.1784 72.9454 12.1647C73.7022 12.1647 73.7022 10.9817 72.9454 10.9955C63.1753 11.0367 53.4189 11.0643 43.6488 11.1055C40.8967 11.1193 38.1308 11.1193 35.3787 11.133C34.6218 11.133 34.6218 12.3022 35.3787 12.3022Z" fill="#373838"/>
<path d="M58.015 11.8483C66.01 11.642 74.0049 11.642 81.9999 11.8208C82.7567 11.8345 82.7567 10.6653 81.9999 10.6516C74.0049 10.4728 66.01 10.4865 58.015 10.6791C57.2582 10.6928 57.2582 11.8758 58.015 11.8483Z" fill="#373838"/>
<path d="M10.4306 6.56618C11.2149 6.8688 12.0681 6.92382 12.8937 6.75876C13.1965 6.70373 13.4029 6.31857 13.3066 6.04346C13.1965 5.72708 12.9075 5.57577 12.591 5.63079C12.536 5.64455 12.4947 5.64455 12.4396 5.65831C12.302 5.68582 12.5772 5.64455 12.4396 5.65831C12.3571 5.67206 12.2607 5.67207 12.1782 5.68582C11.9993 5.69958 11.8342 5.68581 11.6553 5.67206C11.6278 5.67206 11.5452 5.64455 11.5177 5.65831C11.6002 5.67206 11.6278 5.67206 11.5727 5.67206C11.5589 5.67206 11.5314 5.67206 11.5177 5.65831C11.4351 5.64455 11.3388 5.63081 11.2562 5.60329C11.0773 5.56203 10.9122 5.50699 10.7471 5.43821C10.6095 5.38319 10.4168 5.42447 10.293 5.49325C10.1691 5.56203 10.059 5.69958 10.0178 5.83714C9.93519 6.18103 10.1141 6.45613 10.4306 6.56618Z" fill="#373838"/>
<path d="M16.3063 4.50284C17.0494 4.65415 17.8613 4.51659 18.4943 4.06265C18.6181 3.96636 18.7144 3.87007 18.7695 3.71876C18.8108 3.58121 18.797 3.38862 18.7144 3.26482C18.6319 3.14102 18.508 3.03098 18.3704 2.98972C18.2191 2.96221 18.0402 2.96222 17.9163 3.04475C17.7787 3.14104 17.6273 3.22356 17.476 3.29234C17.5173 3.27859 17.5723 3.25108 17.6136 3.23733C17.4347 3.30611 17.2421 3.36113 17.0494 3.38864C17.1044 3.37489 17.1595 3.37488 17.2008 3.36112C17.0081 3.38864 16.8017 3.38864 16.6091 3.36112C16.6641 3.37488 16.7191 3.37489 16.7604 3.38864C16.7191 3.38864 16.6641 3.37488 16.6228 3.36112C16.4715 3.33361 16.3063 3.3336 16.1687 3.41614C16.0449 3.48492 15.9348 3.62247 15.8935 3.76003C15.8247 4.07641 15.9898 4.44782 16.3063 4.50284Z" fill="#373838"/>
<path d="M20.3245 6.95138C20.3796 6.99264 20.4346 7.02014 20.5034 7.04765C20.5997 7.08892 20.7098 7.13019 20.8061 7.1577C21.0401 7.19896 21.2465 7.19896 21.4804 7.1577C21.6455 7.13019 21.8244 7.06141 21.962 6.96512C22.1547 6.84133 22.3061 6.69003 22.4299 6.49745C22.5125 6.37366 22.5262 6.18108 22.485 6.04353C22.4437 5.90598 22.3473 5.75467 22.2097 5.69965C22.0721 5.63087 21.907 5.58962 21.7556 5.64464C21.6043 5.69966 21.4942 5.78219 21.4116 5.91974C21.3979 5.93349 21.3979 5.94725 21.3841 5.961C21.4116 5.91974 21.4391 5.87848 21.4804 5.83721C21.4391 5.89223 21.3841 5.94725 21.3291 5.98852C21.3703 5.96101 21.4116 5.93349 21.4529 5.89222C21.3841 5.93349 21.3291 5.97475 21.2465 6.01601C21.2878 6.00226 21.3428 5.97476 21.3841 5.961C21.3015 6.00227 21.219 6.01603 21.1226 6.02978C21.1777 6.01603 21.2327 6.01602 21.274 6.00227C21.1914 6.01602 21.0951 6.01602 21.0126 6.00227C21.0676 6.01602 21.1226 6.01603 21.1639 6.02978C21.0814 6.01603 21.0126 6.00226 20.9438 5.97475C20.985 5.98851 21.0401 6.01603 21.0814 6.02978C21.0263 6.00227 20.9575 5.97475 20.9025 5.93349C20.7924 5.85096 20.586 5.83721 20.4484 5.87847C20.3108 5.91974 20.1594 6.01602 20.1044 6.15357C20.0355 6.29113 19.9943 6.45619 20.0493 6.6075C20.0631 6.64876 20.0906 6.70379 20.1044 6.74506C20.1594 6.82759 20.242 6.89636 20.3245 6.95138Z" fill="#373838"/>
<path d="M72.3812 6.16726C71.8032 6.34609 71.2253 6.51116 70.6473 6.68999C70.3583 6.77252 70.1382 7.10266 70.2345 7.40528C70.3308 7.70791 70.6473 7.91425 70.9501 7.81796C71.528 7.63913 72.1059 7.47406 72.6839 7.29524C72.9729 7.2127 73.193 6.88256 73.0967 6.57994C73.0004 6.29107 72.6977 6.08473 72.3812 6.16726Z" fill="#373838"/>
<path d="M76.647 3.31996C76.6057 3.34747 76.5644 3.37499 76.5231 3.38874C76.5644 3.37499 76.6195 3.34747 76.6607 3.33371C76.5919 3.36122 76.5231 3.38874 76.4406 3.38874C76.4956 3.37499 76.5507 3.37498 76.5919 3.36123C76.5231 3.37498 76.4406 3.37498 76.3718 3.36123C76.4268 3.37498 76.4818 3.37499 76.5231 3.38874C76.4543 3.37499 76.3718 3.36122 76.303 3.33371C76.3442 3.34747 76.3993 3.37499 76.4406 3.38874C76.3855 3.36123 76.3442 3.33372 76.2892 3.30621C76.2204 3.26495 76.1516 3.23743 76.069 3.23743C75.9865 3.22368 75.9177 3.22367 75.8351 3.25118C75.6975 3.29245 75.5461 3.38873 75.4911 3.52629C75.4223 3.66384 75.381 3.82891 75.436 3.98022C75.4498 4.02149 75.4773 4.07652 75.4911 4.11779C75.5461 4.20032 75.6149 4.28284 75.6975 4.32411C75.8076 4.40664 75.9314 4.4479 76.0553 4.48917C76.0965 4.50293 76.1378 4.51669 76.1791 4.51669C76.2754 4.53044 76.358 4.5442 76.4543 4.5442C76.4956 4.5442 76.5369 4.54421 76.5782 4.53046C76.6607 4.5167 76.7571 4.51668 76.8396 4.48917C76.9635 4.4479 77.1011 4.39289 77.2112 4.32411C77.335 4.24158 77.4451 4.11778 77.4864 3.98022C77.5277 3.84267 77.5139 3.65009 77.4313 3.52629C77.3488 3.40249 77.2249 3.29245 77.0873 3.25118C76.9497 3.23742 76.7708 3.23743 76.647 3.31996Z" fill="#373838"/>
<path d="M45.4515 5.58959C45.5478 5.68588 45.6579 5.76842 45.768 5.8372C45.8505 5.87846 45.9331 5.91973 46.0157 5.94724C46.057 5.961 46.0982 5.97475 46.1533 5.98851C46.4147 6.05728 46.7175 6.05728 46.9789 5.96099C47.1303 5.90597 47.2541 5.82344 47.3229 5.68589C47.3917 5.56209 47.433 5.36951 47.378 5.23195C47.3367 5.0944 47.2404 4.95685 47.1028 4.88807C46.9652 4.81929 46.8 4.77801 46.6487 4.83304C46.5936 4.84679 46.5386 4.87432 46.4698 4.87432C46.5248 4.86057 46.5799 4.86056 46.6211 4.84681C46.5386 4.86056 46.4698 4.86056 46.3872 4.84681C46.4423 4.86056 46.4973 4.86057 46.5386 4.87432C46.456 4.86057 46.3734 4.84681 46.2909 4.80554C46.3322 4.8193 46.3872 4.8468 46.4285 4.86055C46.3597 4.83304 46.2909 4.79178 46.2221 4.73676C46.2634 4.76427 46.3046 4.79177 46.3459 4.83304C46.3184 4.80553 46.2771 4.77802 46.2496 4.75051C46.1533 4.64046 45.9882 4.58545 45.8368 4.58545C45.6992 4.58545 45.5203 4.65422 45.424 4.75051C45.3276 4.86055 45.2451 5.01186 45.2588 5.16317C45.2864 5.34199 45.3414 5.47954 45.4515 5.58959Z" fill="#373838"/>
<path d="M53.5979 7.39147C53.708 7.46024 53.8318 7.51528 53.9419 7.55654C54.0245 7.58405 54.107 7.61157 54.1896 7.62532C54.3135 7.63908 54.4511 7.66658 54.5749 7.65282C54.7125 7.63906 54.8364 7.62531 54.974 7.58404C55.1116 7.54277 55.2492 7.44649 55.318 7.30894C55.3868 7.18514 55.4281 6.99257 55.373 6.85501C55.3317 6.71746 55.2354 6.57991 55.0978 6.51113C54.9602 6.44236 54.7951 6.4011 54.6437 6.45612C54.5887 6.46988 54.5336 6.48363 54.4786 6.49739C54.5336 6.48363 54.5887 6.48363 54.6299 6.46987C54.5336 6.48363 54.4235 6.48363 54.3272 6.46987C54.3823 6.48363 54.4373 6.48363 54.4786 6.49739C54.3823 6.48363 54.2859 6.45612 54.1896 6.41486C54.2309 6.42861 54.2859 6.45612 54.3272 6.46987C54.2722 6.44236 54.2034 6.41486 54.1483 6.37359C54.0795 6.33233 54.0107 6.30481 53.9281 6.30481C53.8456 6.29106 53.7768 6.29105 53.6942 6.31856C53.5566 6.35983 53.4052 6.45613 53.3502 6.59368C53.2814 6.73124 53.2401 6.89628 53.2952 7.04759C53.364 7.19889 53.4603 7.30894 53.5979 7.39147Z" fill="#373838"/>
<path d="M12.6322 23.4029C12.6872 26.8005 12.756 30.1981 12.8111 33.6095C12.8249 34.2697 12.8111 34.9712 13.5679 35.2326C14.256 35.4527 15.1229 35.3289 15.8384 35.3289C17.5585 35.3289 19.2649 35.3151 20.9849 35.2739C21.7418 35.2601 21.7418 34.0771 20.9849 34.1047C19.4713 34.1322 17.9438 34.1597 16.4302 34.1597C15.6871 34.1597 14.944 34.2009 14.2009 34.1597C14.022 34.1459 13.967 34.0771 14.0083 34.2147C13.967 34.0909 13.9945 33.8433 13.9945 33.7333C13.9945 33.3481 13.9807 32.9629 13.9807 32.564C13.9257 29.5241 13.8707 26.4704 13.8156 23.4304C13.7881 22.6463 12.6184 22.6463 12.6322 23.4029Z" fill="#373838"/>
<path d="M13.3753 23.678C15.7697 23.4716 18.1641 23.3616 20.5722 23.3754C21.329 23.3754 21.329 22.2061 20.5722 22.2061C18.1641 22.1924 15.7697 22.2887 13.3753 22.5087C12.6323 22.5638 12.6185 23.7468 13.3753 23.678Z" fill="#373838"/>
<path d="M20.3795 22.8664C20.2557 26.8142 20.3795 30.7758 20.7235 34.7236C20.7923 35.4664 21.962 35.4801 21.8932 34.7236C21.5492 30.7895 21.4253 26.8279 21.5492 22.8664C21.5767 22.1098 20.3933 22.1098 20.3795 22.8664Z" fill="#373838"/>
<path d="M13.5129 26.5805C15.866 26.4842 18.2191 26.3879 20.5722 26.2916C21.329 26.2641 21.329 25.0811 20.5722 25.1224C18.2191 25.2187 15.866 25.315 13.5129 25.4113C12.7698 25.4388 12.7561 26.6218 13.5129 26.5805Z" fill="#373838"/>
<path d="M16.4852 26.4703C16.8017 26.8967 16.6779 27.5432 16.6641 28.0522C16.6504 28.7125 16.6228 29.3865 16.6091 30.0467C16.5678 31.381 16.5265 32.7153 16.499 34.0358C16.4715 34.7924 17.6549 34.7924 17.6686 34.0358C17.7099 32.6053 17.7512 31.1609 17.7925 29.7304C17.82 29.0151 17.8338 28.2998 17.8613 27.5845C17.8751 26.993 17.8751 26.374 17.5173 25.8788C17.3246 25.6175 17.0081 25.4937 16.7192 25.6725C16.4439 25.8101 16.2926 26.2227 16.4852 26.4703Z" fill="#373838"/>
<path d="M25.5398 23.4029C25.5948 26.8005 25.6636 30.1981 25.7187 33.6095C25.7324 34.2697 25.7187 34.9712 26.4755 35.2326C27.1636 35.4527 28.0305 35.3289 28.746 35.3289C30.4661 35.3289 32.1724 35.3151 33.8925 35.2739C34.6494 35.2601 34.6494 34.0771 33.8925 34.1047C32.3789 34.1322 30.8514 34.1597 29.3377 34.1597C28.5947 34.1597 27.8516 34.2009 27.1085 34.1597C26.9296 34.1459 26.8746 34.0771 26.9159 34.2147C26.8746 34.0909 26.9021 33.8433 26.9021 33.7333C26.9021 33.3481 26.8883 32.9629 26.8883 32.564C26.8333 29.5241 26.7783 26.4704 26.7232 23.4304C26.6957 22.6463 25.526 22.6463 25.5398 23.4029Z" fill="#373838"/>
<path d="M26.2829 23.678C28.6773 23.4716 31.0716 23.3616 33.4797 23.3754C34.2366 23.3754 34.2366 22.2061 33.4797 22.2061C31.0716 22.1924 28.6773 22.2887 26.2829 22.5087C25.5398 22.5638 25.5398 23.7468 26.2829 23.678Z" fill="#373838"/>
<path d="M33.2871 22.8664C33.1633 26.8142 33.2871 30.7758 33.6311 34.7236C33.6999 35.4664 34.8696 35.4801 34.8008 34.7236C34.4568 30.7895 34.3329 26.8279 34.4568 22.8664C34.4843 22.1098 33.3146 22.1098 33.2871 22.8664Z" fill="#373838"/>
<path d="M26.4342 26.5805C28.7873 26.4842 31.1404 26.3879 33.4934 26.2916C34.2503 26.2641 34.2503 25.0811 33.4934 25.1224C31.1404 25.2187 28.7873 25.315 26.4342 25.4113C25.6774 25.4388 25.6774 26.6218 26.4342 26.5805Z" fill="#373838"/>
<path d="M29.3928 26.4703C29.7093 26.8967 29.5855 27.5432 29.5717 28.0522C29.5579 28.7125 29.5304 29.3865 29.5167 30.0467C29.4754 31.381 29.4341 32.7153 29.4066 34.0358C29.3791 34.7924 30.5625 34.7924 30.5762 34.0358C30.6175 32.6053 30.6588 31.1609 30.7001 29.7304C30.7276 29.0151 30.7414 28.2998 30.7689 27.5845C30.7827 26.993 30.7827 26.374 30.4249 25.8788C30.2322 25.6175 29.9157 25.4937 29.6268 25.6725C29.3515 25.8101 29.2002 26.2227 29.3928 26.4703Z" fill="#373838"/>
<path d="M15.6459 71.0932C15.7147 75.3161 15.7972 79.5253 15.866 83.7482C15.8798 84.7799 15.9073 85.8253 15.9211 86.8569C15.9348 87.3384 15.9348 87.8336 15.9486 88.315C15.9624 88.7552 15.9899 89.1954 16.3064 89.5392C16.8706 90.1445 17.8338 90.0344 18.5769 90.0344C19.6502 90.0344 20.7098 90.0344 21.7831 90.0344C24.15 90.0207 26.5031 89.9932 28.8699 89.9382C29.6267 89.9244 29.6267 88.7414 28.8699 88.7689C26.9296 88.8102 24.9894 88.8377 23.0491 88.8515C22.0859 88.8515 21.1089 88.8652 20.1456 88.8652C19.6915 88.8652 19.2374 88.8652 18.7833 88.8652C18.343 88.8652 17.8613 88.9203 17.4348 88.8377C17.0082 88.7552 17.132 88.3838 17.1183 88.0262C17.1045 87.5034 17.1045 86.9945 17.0907 86.4718C17.077 85.4951 17.0632 84.5185 17.0357 83.5556C17.0082 81.6023 16.9669 79.6628 16.9394 77.7095C16.8981 75.5087 16.8568 73.294 16.8293 71.0932C16.8018 70.3504 15.6321 70.3366 15.6459 71.0932Z" fill="#373838"/>
<path d="M16.2788 71.2306C20.3657 70.8455 24.4664 70.6804 28.5809 70.6942C29.3377 70.6942 29.3377 69.525 28.5809 69.525C24.4802 69.4975 20.3657 69.6763 16.2788 70.0614C15.5357 70.1302 15.522 71.2994 16.2788 71.2306Z" fill="#373838"/>
<path d="M28.2644 70.2403C28.0717 76.6503 28.2644 83.0741 28.8285 89.4567C28.8973 90.1994 30.067 90.2132 29.9982 89.4567C29.434 83.0741 29.2414 76.6503 29.434 70.2403C29.4615 69.4837 28.2919 69.4837 28.2644 70.2403Z" fill="#373838"/>
<path d="M16.7329 75.9075C20.5584 75.7562 24.3976 75.5911 28.2231 75.4398C28.9799 75.4123 28.9799 74.2293 28.2231 74.2706C24.3976 74.4219 20.5584 74.587 16.7329 74.7383C15.9761 74.7658 15.9761 75.935 16.7329 75.9075Z" fill="#373838"/>
<path d="M51.3549 22.6188C51.4099 26.0164 51.4787 29.414 51.5337 32.8254C51.5475 33.4856 51.5337 34.1872 52.2906 34.4485C52.9786 34.6686 53.8455 34.5448 54.5611 34.5448C56.2812 34.5448 57.9875 34.5311 59.7076 34.4898C60.4644 34.476 60.4644 33.2931 59.7076 33.3206C58.1939 33.3481 56.6665 33.3756 55.1528 33.3756C54.4097 33.3756 53.6667 33.4169 52.9236 33.3756C52.7447 33.3618 52.6896 33.2931 52.7309 33.4306C52.6896 33.3068 52.7172 33.0592 52.7172 32.9492C52.7172 32.564 52.7034 32.1789 52.7034 31.78C52.6484 28.74 52.5933 25.6863 52.5383 22.6463C52.5245 21.8623 51.3549 21.8623 51.3549 22.6188Z" fill="#373838"/>
<path d="M52.1117 22.894C54.506 22.6877 56.9004 22.5776 59.3085 22.5914C60.0654 22.5914 60.0654 21.4222 59.3085 21.4222C56.9004 21.4084 54.506 21.5047 52.1117 21.7248C51.3686 21.7798 51.3548 22.9628 52.1117 22.894Z" fill="#373838"/>
<path d="M59.1159 22.0823C58.992 26.0301 59.1159 29.9917 59.4599 33.9395C59.5287 34.6823 60.6983 34.6961 60.6295 33.9395C60.2855 30.0055 60.1617 26.0439 60.2855 22.0823C60.313 21.3258 59.1296 21.3258 59.1159 22.0823Z" fill="#373838"/>
<path d="M52.2493 25.7963C54.6024 25.7 56.9554 25.6037 59.3085 25.5074C60.0653 25.4799 60.0653 24.2969 59.3085 24.3382C56.9554 24.4345 54.6024 24.5308 52.2493 24.6271C51.4924 24.6546 51.4924 25.8376 52.2493 25.7963Z" fill="#373838"/>
<path d="M55.2216 25.7001C55.5381 26.1265 55.4142 26.773 55.4004 27.2819C55.3867 27.9422 55.3592 28.6162 55.3454 29.2765C55.3041 30.6107 55.2628 31.945 55.2353 33.2656C55.2078 34.0221 56.3912 34.0221 56.405 33.2656C56.4463 31.835 56.4875 30.3907 56.5288 28.9601C56.5563 28.2448 56.5701 27.5295 56.5976 26.8142C56.6114 26.2228 56.6114 25.6038 56.2536 25.1086C56.061 24.8472 55.7445 24.7234 55.4555 24.9022C55.1803 25.0398 55.0289 25.4387 55.2216 25.7001Z" fill="#373838"/>
<path d="M64.2761 22.6188C64.3312 26.0164 64.4 29.414 64.455 32.8254C64.4688 33.4856 64.455 34.1872 65.2118 34.4485C65.8999 34.6686 66.7668 34.5448 67.4824 34.5448C69.2025 34.5448 70.9088 34.5311 72.6289 34.4898C73.3857 34.476 73.3857 33.2931 72.6289 33.3206C71.1152 33.3481 69.5878 33.3756 68.0741 33.3756C67.331 33.3756 66.5879 33.4169 65.8448 33.3756C65.666 33.3618 65.6109 33.2931 65.6522 33.4306C65.6109 33.3068 65.6384 33.0592 65.6384 32.9492C65.6384 32.564 65.6247 32.1789 65.6247 31.78C65.5696 28.74 65.5146 25.6863 65.4595 22.6463C65.432 21.8623 64.2624 21.8623 64.2761 22.6188Z" fill="#373838"/>
<path d="M65.0192 22.894C67.4136 22.6877 69.8079 22.5776 72.2161 22.5914C72.9729 22.5914 72.9729 21.4222 72.2161 21.4222C69.8079 21.4084 67.4136 21.5047 65.0192 21.7248C64.2761 21.7798 64.2761 22.9628 65.0192 22.894Z" fill="#373838"/>
<path d="M72.0234 22.0823C71.8996 26.0301 72.0234 29.9917 72.3675 33.9395C72.4363 34.6823 73.6059 34.6961 73.5371 33.9395C73.1931 30.0055 73.0693 26.0439 73.1931 22.0823C73.2206 21.3258 72.051 21.3258 72.0234 22.0823Z" fill="#373838"/>
<path d="M65.1568 25.7963C67.5099 25.7 69.8629 25.6037 72.216 25.5074C72.9729 25.4799 72.9729 24.2969 72.216 24.3382C69.8629 24.4345 67.5099 24.5308 65.1568 24.6271C64.4137 24.6546 64.4137 25.8376 65.1568 25.7963Z" fill="#373838"/>
<path d="M68.1291 25.7001C68.4456 26.1265 68.3218 26.773 68.308 27.2819C68.2943 27.9422 68.2668 28.6162 68.253 29.2765C68.2117 30.6107 68.1704 31.945 68.1429 33.2656C68.1154 34.0221 69.2988 34.0221 69.3126 33.2656C69.3538 31.835 69.3951 30.3907 69.4364 28.9601C69.4639 28.2448 69.4777 27.5295 69.5052 26.8142C69.519 26.2228 69.519 25.6038 69.1612 25.1086C68.9685 24.8472 68.6521 24.7234 68.3631 24.9022C68.0879 25.0398 67.9365 25.4387 68.1291 25.7001Z" fill="#373838"/>
<path d="M86.4033 17.1853C86.4171 18.7947 86.4033 20.4179 86.362 22.0273C86.3345 22.7838 87.518 22.7838 87.5317 22.0273C87.573 20.4179 87.5868 18.7947 87.573 17.1853C87.573 16.4288 86.4033 16.4288 86.4033 17.1853Z" fill="#373838"/>
<path d="M87.1877 17.1853C87.2015 18.7947 87.1878 20.4179 87.1465 22.0273C87.1189 22.7838 88.3024 22.7838 88.3161 22.0273C88.3574 20.4179 88.3712 18.7947 88.3574 17.1853C88.3574 16.4288 87.174 16.4288 87.1877 17.1853Z" fill="#373838"/>
<path d="M89.9262 17.1853C89.9399 18.7947 89.9262 20.4179 89.8849 22.0273C89.8574 22.7838 91.0408 22.7838 91.0545 22.0273C91.0958 20.4179 91.1096 18.7947 91.0958 17.1853C91.0958 16.4288 89.9124 16.4288 89.9262 17.1853Z" fill="#373838"/>
<path d="M90.7105 17.1853C90.7242 18.7947 90.7105 20.4179 90.6692 22.0273C90.6417 22.7838 91.8251 22.7838 91.8388 22.0273C91.8801 20.4179 91.8939 18.7947 91.8801 17.1853C91.8801 16.4288 90.6967 16.4288 90.7105 17.1853Z" fill="#373838"/>
<path d="M86.4033 25.0122C86.4171 26.6216 86.4033 28.2448 86.362 29.8542C86.3345 30.6107 87.518 30.6107 87.5317 29.8542C87.573 28.2448 87.5868 26.6216 87.573 25.0122C87.573 24.2557 86.4033 24.2557 86.4033 25.0122Z" fill="#373838"/>
<path d="M87.1877 25.0122C87.2015 26.6216 87.1878 28.2448 87.1465 29.8542C87.1189 30.6107 88.3024 30.6107 88.3161 29.8542C88.3574 28.2448 88.3712 26.6216 88.3574 25.0122C88.3574 24.2557 87.174 24.2557 87.1877 25.0122Z" fill="#373838"/>
<path d="M89.9262 25.0122C89.9399 26.6216 89.9262 28.2448 89.8849 29.8542C89.8574 30.6107 91.0408 30.6107 91.0545 29.8542C91.0958 28.2448 91.1096 26.6216 91.0958 25.0122C91.0958 24.2557 89.9124 24.2557 89.9262 25.0122Z" fill="#373838"/>
<path d="M90.7105 25.0122C90.7242 26.6216 90.7105 28.2448 90.6692 29.8542C90.6417 30.6107 91.8251 30.6107 91.8388 29.8542C91.8801 28.2448 91.8939 26.6216 91.8801 25.0122C91.8801 24.2557 90.6967 24.2557 90.7105 25.0122Z" fill="#373838"/>
<path d="M87.4491 1.72428C86.4721 3.23737 85.6052 4.83301 84.8759 6.48367C84.5319 7.28148 84.2016 8.07929 83.9126 8.90461C83.7613 9.34479 83.6099 9.78497 83.4723 10.2251C83.3622 10.5965 83.2521 10.9817 83.0044 11.2843C82.5228 11.862 83.3484 12.7011 83.8301 12.1096C84.3667 11.4631 84.5456 10.6516 84.8071 9.86749C85.1098 8.97339 85.4401 8.09304 85.8116 7.22645C86.5547 5.52078 87.4491 3.87012 88.4537 2.302C88.8802 1.68301 87.862 1.09153 87.4491 1.72428Z" fill="#373838"/>
<path d="M85.5501 4.92924C84.2841 7.08885 83.2383 9.37226 82.3852 11.7382C82.1375 12.4535 83.2658 12.7561 83.5135 12.0546C84.3254 9.78491 85.3437 7.61156 86.5546 5.53449C86.9537 4.86047 85.9354 4.26898 85.5501 4.92924Z" fill="#373838"/>
<path d="M83.5136 9.79874C83.3622 10.2252 83.2109 10.6378 83.0595 11.0643C82.9907 11.2706 82.9081 11.4769 82.8393 11.6695C82.798 11.7795 82.7568 11.8896 82.7155 11.9996C82.7017 12.0409 82.6742 12.0959 82.6604 12.1372C82.6329 12.206 82.6329 12.2059 82.6742 12.1097C82.7705 11.9308 82.9494 11.8758 83.1971 11.9171C83.2797 11.9721 83.376 12.0134 83.4586 12.0684L83.4448 12.0546C83.4998 12.1372 83.5411 12.2334 83.5962 12.316V12.3022C83.5136 12.0134 83.1833 11.7933 82.8806 11.8896C82.5779 11.9859 82.3852 12.2885 82.4678 12.6049C82.5503 12.88 82.798 13.0863 83.087 13.0725C83.3347 13.0588 83.5686 12.9212 83.6925 12.7011C83.775 12.5498 83.8163 12.371 83.8851 12.2059C83.9402 12.0684 83.9815 11.9308 84.0365 11.7795C84.2429 11.2155 84.4356 10.6516 84.642 10.0876C84.7521 9.79875 84.5319 9.42735 84.2292 9.37232C83.9127 9.3173 83.6237 9.49612 83.5136 9.79874Z" fill="#373838"/>
<path d="M87.6968 2.97602C89.2518 5.93344 91.2058 8.65702 93.4901 11.0917C94.013 11.642 94.8386 10.8166 94.3157 10.2664C92.1003 7.90048 90.215 5.24566 88.7014 2.38452C88.3573 1.7105 87.3528 2.302 87.6968 2.97602Z" fill="#373838"/>
<path d="M87.9446 3.22364C89.6647 6.12605 91.7013 8.84964 94.0268 11.2981C94.5497 11.8483 95.3754 11.023 94.8525 10.4728C92.6095 8.07933 90.6279 5.45204 88.9629 2.63217C88.5776 1.98566 87.5593 2.57714 87.9446 3.22364Z" fill="#373838"/>
<path d="M93.0361 10.3902C93.3251 10.9404 93.6553 11.4494 94.0268 11.9446C94.1232 12.0684 94.2195 12.1647 94.3709 12.2197C94.5085 12.261 94.7011 12.2472 94.825 12.1647C94.9488 12.0822 95.0589 11.9584 95.1002 11.8208C95.1277 11.6832 95.1277 11.4907 95.0451 11.3669C94.6736 10.8717 94.3433 10.349 94.0544 9.81249C93.903 9.53738 93.5177 9.44108 93.2562 9.60615C92.981 9.77121 92.8847 10.1014 93.0361 10.3902Z" fill="#373838"/>
<path d="M4.62354 47.8738C14.7101 48.0114 24.7967 48.0389 34.8833 48.0114C44.9699 47.9839 55.0565 47.8738 65.1431 47.75C70.7987 47.6812 76.4681 47.5987 82.1238 47.5299C82.8806 47.5162 82.8806 46.347 82.1238 46.3607C72.0372 46.4983 61.9506 46.6358 51.864 46.7321C41.7774 46.8284 31.6908 46.8834 21.6042 46.8422C15.9486 46.8284 10.2792 46.7734 4.62354 46.7046C3.8667 46.6908 3.8667 47.8738 4.62354 47.8738Z" fill="#373838"/>
<path d="M4.47217 64.9306C14.5863 65.0957 24.7004 65.1782 34.8145 65.2058C44.9011 65.2333 54.9739 65.1782 65.0605 65.0682C70.7574 64.9994 76.4406 64.9169 82.1375 64.8068C82.8944 64.7931 82.8944 63.6238 82.1375 63.6376C72.0234 63.8302 61.9093 63.954 51.7952 64.009C41.7086 64.064 31.6358 64.0503 21.5492 63.9677C15.8523 63.9265 10.1691 63.8577 4.47217 63.7614C3.71533 63.7339 3.71533 64.9169 4.47217 64.9306Z" fill="#373838"/>
<path d="M4.60974 53.6649C14.6551 53.6374 24.6866 53.5961 34.7319 53.5411C44.7772 53.4861 54.8088 53.4311 64.8541 53.3761C70.5235 53.3348 76.1929 53.3073 81.8623 53.266C82.6191 53.266 82.6191 52.083 81.8623 52.0968C71.817 52.1656 61.7854 52.2344 51.7401 52.2894C41.6948 52.3444 31.6633 52.3994 21.618 52.4407C15.9486 52.4682 10.2791 52.482 4.60974 52.5095C3.8529 52.4957 3.8529 53.6649 4.60974 53.6649Z" fill="#373838"/>
<path d="M9.34342 47.8877C9.19205 53.3073 9.05444 58.7132 8.90307 64.1328C8.88931 64.8894 10.059 64.8894 10.0727 64.1328C10.2241 58.7132 10.3617 53.3073 10.5131 47.8877C10.5268 47.1449 9.35718 47.1449 9.34342 47.8877Z" fill="#373838"/>
<path d="M14.8202 47.8877C14.6689 53.3073 14.5312 58.7132 14.3799 64.1328C14.3661 64.8894 15.5358 64.8894 15.5495 64.1328C15.7009 58.7132 15.8385 53.3073 15.9899 47.8877C16.0036 47.1449 14.834 47.1449 14.8202 47.8877Z" fill="#373838"/>
<path d="M22.251 47.8877C22.0996 53.3073 21.962 58.7132 21.8107 64.1328C21.7969 64.8894 22.9666 64.8894 22.9803 64.1328C23.1317 58.7132 23.2693 53.3073 23.4207 47.8877C23.4482 47.1449 22.2648 47.1449 22.251 47.8877Z" fill="#373838"/>
<path d="M21.8932 75.5086C21.9345 80.1717 21.962 84.821 22.0033 89.4841C22.0033 90.2407 23.1867 90.2407 23.1729 89.4841C23.1317 84.821 23.1041 80.1717 23.0628 75.5086C23.0628 74.752 21.8932 74.752 21.8932 75.5086Z" fill="#373838"/>
<path d="M56.3362 70.3228C56.405 74.5457 56.4875 78.7549 56.5564 82.9778C56.5701 84.0095 56.5976 85.0549 56.6114 86.0866C56.6252 86.568 56.6252 87.0632 56.6389 87.5447C56.6527 87.9848 56.6802 88.425 56.9967 88.7689C57.5609 89.3741 58.5241 89.2641 59.2672 89.2641C60.3405 89.2641 61.4001 89.2641 62.4735 89.2641C64.8403 89.2503 67.1934 89.2228 69.5602 89.1678C70.317 89.1541 70.317 87.9711 69.5602 87.9986C67.6199 88.0399 65.6797 88.0674 63.7394 88.0811C62.7762 88.0811 61.7992 88.0949 60.8359 88.0949C60.3818 88.0949 59.9277 88.0949 59.4736 88.0949C59.0333 88.0949 58.5517 88.1499 58.1251 88.0674C57.6985 87.9848 57.8223 87.6134 57.8086 87.2558C57.7948 86.7331 57.7948 86.2241 57.7811 85.7014C57.7673 84.7248 57.7535 83.7482 57.726 82.7853C57.6985 80.832 57.6572 78.8925 57.6297 76.9392C57.5884 74.7383 57.5471 72.5237 57.5196 70.3228C57.4921 69.5662 56.3224 69.5662 56.3362 70.3228Z" fill="#373838"/>
<path d="M56.9692 70.4466C61.0561 70.0614 65.1568 69.8964 69.2713 69.9101C70.0281 69.9101 70.0281 68.7409 69.2713 68.7409C65.1706 68.7134 61.0561 68.8922 56.9692 69.2774C56.2261 69.3461 56.2124 70.5291 56.9692 70.4466Z" fill="#373838"/>
<path d="M68.9548 69.4562C68.7621 75.8663 68.9548 82.2901 69.519 88.6726C69.5878 89.4154 70.7574 89.4291 70.6886 88.6726C70.1244 82.2901 69.9318 75.8663 70.1244 69.4562C70.152 68.6997 68.9823 68.6997 68.9548 69.4562Z" fill="#373838"/>
<path d="M57.4233 75.1235C61.2488 74.9721 65.088 74.8071 68.9135 74.6558C69.6704 74.6283 69.6704 73.4453 68.9135 73.4865C65.088 73.6378 61.2488 73.8029 57.4233 73.9542C56.6665 73.9817 56.6665 75.151 57.4233 75.1235Z" fill="#373838"/>
<path d="M62.5836 74.7245C62.6249 79.3876 62.6524 84.0369 62.6937 88.7C62.6937 89.4566 63.8771 89.4566 63.8634 88.7C63.8221 84.0369 63.7946 79.3876 63.7533 74.7245C63.7533 73.968 62.5836 73.968 62.5836 74.7245Z" fill="#373838"/>
<path d="M27.7277 47.8877C27.5763 53.3073 27.4387 58.7132 27.2874 64.1328C27.2736 64.8894 28.4433 64.8894 28.457 64.1328C28.6084 58.7132 28.746 53.3073 28.8974 47.8877C28.9249 47.1449 27.7415 47.1449 27.7277 47.8877Z" fill="#373838"/>
<path d="M35.1585 47.8877C35.0071 53.3073 34.8695 58.7132 34.7181 64.1328C34.7044 64.8894 35.874 64.8894 35.8878 64.1328C36.0392 58.7132 36.1768 53.3073 36.3281 47.8877C36.3557 47.1449 35.186 47.1449 35.1585 47.8877Z" fill="#373838"/>
<path d="M40.6353 47.8877C40.4839 53.3073 40.3463 58.7132 40.1949 64.1328C40.1812 64.8894 41.3508 64.8894 41.3646 64.1328C41.516 58.7132 41.6536 53.3073 41.8049 47.8877C41.8325 47.1449 40.6628 47.1449 40.6353 47.8877Z" fill="#373838"/>
<path d="M45.7267 47.8877C45.5753 53.3073 45.4377 58.7132 45.2864 64.1328C45.2726 64.8894 46.4423 64.8894 46.456 64.1328C46.6074 58.7132 46.745 53.3073 46.8964 47.8877C46.9239 47.1449 45.7405 47.1449 45.7267 47.8877Z" fill="#373838"/>
<path d="M51.2035 47.8877C51.0522 53.3073 50.9145 58.7132 50.7632 64.1328C50.7494 64.8894 51.9191 64.8894 51.9328 64.1328C52.0842 58.7132 52.2218 53.3073 52.3732 47.8877C52.4007 47.1449 51.2173 47.1449 51.2035 47.8877Z" fill="#373838"/>
<path d="M57.8499 47.5025C57.6985 52.9221 57.5609 58.328 57.4095 63.7477C57.3958 64.5043 58.5654 64.5043 58.5792 63.7477C58.7306 58.328 58.8682 52.9221 59.0195 47.5025C59.0471 46.7459 57.8774 46.7459 57.8499 47.5025Z" fill="#373838"/>
<path d="M63.3267 47.5025C63.1753 52.9221 63.0377 58.328 62.8864 63.7477C62.8726 64.5043 64.0422 64.5043 64.056 63.7477C64.2074 58.328 64.345 52.9221 64.4963 47.5025C64.5239 46.7459 63.3542 46.7459 63.3267 47.5025Z" fill="#373838"/>
<path d="M69.5878 47.5025C69.4364 52.9221 69.2988 58.328 69.1475 63.7477C69.1337 64.5043 70.3033 64.5043 70.3171 63.7477C70.4685 58.328 70.6061 52.9221 70.7574 47.5025C70.785 46.7459 69.6153 46.7459 69.5878 47.5025Z" fill="#373838"/>
<path d="M75.0645 47.5025C74.9131 52.9221 74.7755 58.328 74.6241 63.7477C74.6104 64.5043 75.7801 64.5043 75.7938 63.7477C75.9452 58.328 76.0828 52.9221 76.2342 47.5025C76.2617 46.7459 75.092 46.7459 75.0645 47.5025Z" fill="#373838"/>
<path d="M4.80237 94.5737C14.9165 94.67 25.0444 94.725 35.1585 94.7388C45.2451 94.7525 55.3316 94.7388 65.4182 94.6838C71.1152 94.6563 76.8121 94.615 82.509 94.56C83.2659 94.5462 83.2659 93.377 82.509 93.3907C72.3949 93.487 62.267 93.542 52.1529 93.5558C42.0663 93.5833 31.9797 93.5558 21.8932 93.5145C16.1962 93.487 10.4993 93.4458 4.80237 93.3907C4.04553 93.3907 4.04553 94.56 4.80237 94.5737Z" fill="#373838"/>
<path d="M4.80237 103.57C14.9165 103.666 25.0444 103.721 35.1585 103.735C45.2451 103.749 55.3316 103.735 65.4182 103.68C71.1152 103.652 76.8121 103.611 82.509 103.556C83.2659 103.542 83.2659 102.373 82.509 102.387C72.3949 102.483 62.267 102.538 52.1529 102.552C42.0663 102.579 31.9797 102.552 21.8932 102.511C16.1962 102.483 10.4993 102.442 4.80237 102.387C4.04553 102.387 4.04553 103.556 4.80237 103.57Z" fill="#373838"/>
<path d="M83.8026 103.473C85.7153 101.644 87.7244 99.8971 89.8298 98.2877C90.8756 97.4899 91.9352 96.7196 93.0222 95.9768C93.9717 95.3303 94.8937 94.6563 95.4992 93.6521C95.8845 93.0056 94.8662 92.4141 94.4809 93.0606C93.8892 94.0648 92.8571 94.6563 91.9352 95.3028C90.8893 96.0318 89.8573 96.7884 88.839 97.5724C86.8024 99.1543 84.8484 100.846 82.9907 102.634C82.4265 103.171 83.2659 103.996 83.8026 103.473Z" fill="#373838"/>
</svg>
